<mxfile host="app.diagrams.net" modified="2021-03-10T07:06:31.199Z" agent="5.0 (Windows NT 10.0; WOW64) AppleWebKit/537.36 (KHTML, like Gecko) coc_coc_browser/93.0.148 Chrome/87.0.4280.148 Safari/537.36" etag="OsnoqZ2xn--EFrCuJlXW" version="14.4.6" type="github">
  <diagram id="kHLsbcLHMgKkTKzZlc_j" name="Trang-1">
    <mxGraphModel dx="1280" dy="699" grid="0" gridSize="10" guides="1" tooltips="1" connect="1" arrows="1" fold="1" page="1" pageScale="1" pageWidth="4681" pageHeight="3300" math="0" shadow="0">
      <root>
        <mxCell id="0" />
        <mxCell id="1" parent="0" />
        <mxCell id="RnlfCP2qKSnffvko98fF-54" style="edgeStyle=orthogonalEdgeStyle;rounded=0;orthogonalLoop=1;jettySize=auto;html=1;strokeColor=#333333;strokeWidth=2;" edge="1" parent="1" source="RnlfCP2qKSnffvko98fF-7" target="RnlfCP2qKSnffvko98fF-53">
          <mxGeometry relative="1" as="geometry">
            <Array as="points">
              <mxPoint x="2691" y="807" />
              <mxPoint x="2691" y="833" />
            </Array>
          </mxGeometry>
        </mxCell>
        <mxCell id="RnlfCP2qKSnffvko98fF-7" value="Agency" style="swimlane;fontStyle=0;childLayout=stackLayout;horizontal=1;startSize=26;fillColor=none;horizontalStack=0;resizeParent=1;resizeParentMax=0;resizeLast=0;collapsible=1;marginBottom=0;" vertex="1" parent="1">
          <mxGeometry x="2473" y="716" width="140" height="182" as="geometry" />
        </mxCell>
        <mxCell id="RnlfCP2qKSnffvko98fF-8" value="tag" style="text;strokeColor=none;fillColor=none;align=left;verticalAlign=top;spacingLeft=4;spacingRight=4;overflow=hidden;rotatable=0;points=[[0,0.5],[1,0.5]];portConstraint=eastwest;" vertex="1" parent="RnlfCP2qKSnffvko98fF-7">
          <mxGeometry y="26" width="140" height="26" as="geometry" />
        </mxCell>
        <mxCell id="RnlfCP2qKSnffvko98fF-9" value="parent&#xa;" style="text;strokeColor=none;fillColor=none;align=left;verticalAlign=top;spacingLeft=4;spacingRight=4;overflow=hidden;rotatable=0;points=[[0,0.5],[1,0.5]];portConstraint=eastwest;" vertex="1" parent="RnlfCP2qKSnffvko98fF-7">
          <mxGeometry y="52" width="140" height="26" as="geometry" />
        </mxCell>
        <mxCell id="RnlfCP2qKSnffvko98fF-10" value="account&#xa;" style="text;strokeColor=none;fillColor=none;align=left;verticalAlign=top;spacingLeft=4;spacingRight=4;overflow=hidden;rotatable=0;points=[[0,0.5],[1,0.5]];portConstraint=eastwest;" vertex="1" parent="RnlfCP2qKSnffvko98fF-7">
          <mxGeometry y="78" width="140" height="26" as="geometry" />
        </mxCell>
        <mxCell id="RnlfCP2qKSnffvko98fF-19" value="level" style="text;strokeColor=none;fillColor=none;align=left;verticalAlign=top;spacingLeft=4;spacingRight=4;overflow=hidden;rotatable=0;points=[[0,0.5],[1,0.5]];portConstraint=eastwest;" vertex="1" parent="RnlfCP2qKSnffvko98fF-7">
          <mxGeometry y="104" width="140" height="26" as="geometry" />
        </mxCell>
        <mxCell id="RnlfCP2qKSnffvko98fF-16" style="edgeStyle=orthogonalEdgeStyle;rounded=0;orthogonalLoop=1;jettySize=auto;html=1;strokeWidth=2;strokeColor=#FF3333;" edge="1" parent="RnlfCP2qKSnffvko98fF-7" source="RnlfCP2qKSnffvko98fF-7" target="RnlfCP2qKSnffvko98fF-9">
          <mxGeometry relative="1" as="geometry">
            <Array as="points">
              <mxPoint x="70" y="-40" />
              <mxPoint x="160" y="-40" />
              <mxPoint x="160" y="65" />
            </Array>
          </mxGeometry>
        </mxCell>
        <mxCell id="RnlfCP2qKSnffvko98fF-20" value="ancestors" style="text;strokeColor=none;fillColor=none;align=left;verticalAlign=top;spacingLeft=4;spacingRight=4;overflow=hidden;rotatable=0;points=[[0,0.5],[1,0.5]];portConstraint=eastwest;" vertex="1" parent="RnlfCP2qKSnffvko98fF-7">
          <mxGeometry y="130" width="140" height="26" as="geometry" />
        </mxCell>
        <mxCell id="RnlfCP2qKSnffvko98fF-23" style="edgeStyle=orthogonalEdgeStyle;rounded=0;orthogonalLoop=1;jettySize=auto;html=1;strokeWidth=2;strokeColor=#FF3333;" edge="1" parent="RnlfCP2qKSnffvko98fF-7" target="RnlfCP2qKSnffvko98fF-20">
          <mxGeometry relative="1" as="geometry">
            <mxPoint x="70" y="-23" as="sourcePoint" />
            <Array as="points">
              <mxPoint x="70" y="-41" />
              <mxPoint x="160" y="-41" />
              <mxPoint x="160" y="143" />
            </Array>
          </mxGeometry>
        </mxCell>
        <mxCell id="RnlfCP2qKSnffvko98fF-28" value="address" style="text;strokeColor=none;fillColor=none;align=left;verticalAlign=top;spacingLeft=4;spacingRight=4;overflow=hidden;rotatable=0;points=[[0,0.5],[1,0.5]];portConstraint=eastwest;" vertex="1" parent="RnlfCP2qKSnffvko98fF-7">
          <mxGeometry y="156" width="140" height="26" as="geometry" />
        </mxCell>
        <mxCell id="RnlfCP2qKSnffvko98fF-15" style="edgeStyle=orthogonalEdgeStyle;rounded=0;orthogonalLoop=1;jettySize=auto;html=1;exitX=0.5;exitY=0;exitDx=0;exitDy=0;strokeWidth=2;strokeColor=#333333;" edge="1" parent="1" source="RnlfCP2qKSnffvko98fF-11" target="RnlfCP2qKSnffvko98fF-8">
          <mxGeometry relative="1" as="geometry" />
        </mxCell>
        <mxCell id="RnlfCP2qKSnffvko98fF-40" style="edgeStyle=orthogonalEdgeStyle;rounded=0;orthogonalLoop=1;jettySize=auto;html=1;strokeWidth=2;strokeColor=#333333;" edge="1" parent="1" source="RnlfCP2qKSnffvko98fF-11" target="RnlfCP2qKSnffvko98fF-39">
          <mxGeometry relative="1" as="geometry">
            <Array as="points">
              <mxPoint x="2276" y="652" />
              <mxPoint x="2151" y="652" />
              <mxPoint x="2151" y="703" />
            </Array>
          </mxGeometry>
        </mxCell>
        <mxCell id="RnlfCP2qKSnffvko98fF-51" style="edgeStyle=orthogonalEdgeStyle;rounded=0;orthogonalLoop=1;jettySize=auto;html=1;strokeWidth=2;strokeColor=#333333;" edge="1" parent="1" source="RnlfCP2qKSnffvko98fF-11" target="RnlfCP2qKSnffvko98fF-50">
          <mxGeometry relative="1" as="geometry">
            <Array as="points">
              <mxPoint x="2276" y="797" />
              <mxPoint x="2164" y="797" />
              <mxPoint x="2164" y="926" />
            </Array>
          </mxGeometry>
        </mxCell>
        <mxCell id="RnlfCP2qKSnffvko98fF-11" value="Tag" style="swimlane;fontStyle=0;childLayout=stackLayout;horizontal=1;startSize=26;fillColor=none;horizontalStack=0;resizeParent=1;resizeParentMax=0;resizeLast=0;collapsible=1;marginBottom=0;" vertex="1" parent="1">
          <mxGeometry x="2206" y="673" width="140" height="104" as="geometry" />
        </mxCell>
        <mxCell id="RnlfCP2qKSnffvko98fF-42" value="parent&#xa;" style="text;strokeColor=none;fillColor=none;align=left;verticalAlign=top;spacingLeft=4;spacingRight=4;overflow=hidden;rotatable=0;points=[[0,0.5],[1,0.5]];portConstraint=eastwest;" vertex="1" parent="RnlfCP2qKSnffvko98fF-11">
          <mxGeometry y="26" width="140" height="26" as="geometry" />
        </mxCell>
        <mxCell id="RnlfCP2qKSnffvko98fF-41" value="category" style="text;strokeColor=none;fillColor=none;align=left;verticalAlign=top;spacingLeft=4;spacingRight=4;overflow=hidden;rotatable=0;points=[[0,0.5],[1,0.5]];portConstraint=eastwest;" vertex="1" parent="RnlfCP2qKSnffvko98fF-11">
          <mxGeometry y="52" width="140" height="26" as="geometry" />
        </mxCell>
        <mxCell id="RnlfCP2qKSnffvko98fF-46" style="edgeStyle=orthogonalEdgeStyle;rounded=0;orthogonalLoop=1;jettySize=auto;html=1;strokeWidth=2;strokeColor=#FF3333;" edge="1" parent="RnlfCP2qKSnffvko98fF-11" source="RnlfCP2qKSnffvko98fF-11" target="RnlfCP2qKSnffvko98fF-42">
          <mxGeometry relative="1" as="geometry">
            <Array as="points">
              <mxPoint x="70" y="-8" />
              <mxPoint x="160" y="-8" />
              <mxPoint x="160" y="39" />
            </Array>
          </mxGeometry>
        </mxCell>
        <mxCell id="RnlfCP2qKSnffvko98fF-47" value="ancestors" style="text;strokeColor=none;fillColor=none;align=left;verticalAlign=top;spacingLeft=4;spacingRight=4;overflow=hidden;rotatable=0;points=[[0,0.5],[1,0.5]];portConstraint=eastwest;" vertex="1" parent="RnlfCP2qKSnffvko98fF-11">
          <mxGeometry y="78" width="140" height="26" as="geometry" />
        </mxCell>
        <mxCell id="RnlfCP2qKSnffvko98fF-48" style="edgeStyle=orthogonalEdgeStyle;rounded=0;orthogonalLoop=1;jettySize=auto;html=1;strokeColor=#FF3333;strokeWidth=2;" edge="1" parent="RnlfCP2qKSnffvko98fF-11" source="RnlfCP2qKSnffvko98fF-11" target="RnlfCP2qKSnffvko98fF-47">
          <mxGeometry relative="1" as="geometry" />
        </mxCell>
        <mxCell id="RnlfCP2qKSnffvko98fF-18" style="edgeStyle=orthogonalEdgeStyle;rounded=0;orthogonalLoop=1;jettySize=auto;html=1;strokeWidth=2;strokeColor=#333333;" edge="1" parent="1" source="RnlfCP2qKSnffvko98fF-17" target="RnlfCP2qKSnffvko98fF-10">
          <mxGeometry relative="1" as="geometry">
            <Array as="points">
              <mxPoint x="2285" y="843" />
              <mxPoint x="2420" y="843" />
              <mxPoint x="2420" y="807" />
            </Array>
          </mxGeometry>
        </mxCell>
        <mxCell id="RnlfCP2qKSnffvko98fF-17" value="Account" style="swimlane;fontStyle=0;childLayout=stackLayout;horizontal=1;startSize=26;fillColor=none;horizontalStack=0;resizeParent=1;resizeParentMax=0;resizeLast=0;collapsible=1;marginBottom=0;" vertex="1" parent="1">
          <mxGeometry x="2215" y="882" width="140" height="52" as="geometry" />
        </mxCell>
        <mxCell id="RnlfCP2qKSnffvko98fF-22" style="edgeStyle=orthogonalEdgeStyle;rounded=0;orthogonalLoop=1;jettySize=auto;html=1;exitX=0.5;exitY=0;exitDx=0;exitDy=0;strokeWidth=2;strokeColor=#333333;" edge="1" parent="1" source="RnlfCP2qKSnffvko98fF-21" target="RnlfCP2qKSnffvko98fF-19">
          <mxGeometry relative="1" as="geometry" />
        </mxCell>
        <mxCell id="RnlfCP2qKSnffvko98fF-21" value="Agency level" style="swimlane;fontStyle=0;childLayout=stackLayout;horizontal=1;startSize=26;fillColor=none;horizontalStack=0;resizeParent=1;resizeParentMax=0;resizeLast=0;collapsible=1;marginBottom=0;" vertex="1" parent="1">
          <mxGeometry x="2710" y="699" width="140" height="52" as="geometry" />
        </mxCell>
        <mxCell id="RnlfCP2qKSnffvko98fF-30" style="edgeStyle=orthogonalEdgeStyle;rounded=0;orthogonalLoop=1;jettySize=auto;html=1;strokeWidth=2;strokeColor=#333333;" edge="1" parent="1" source="RnlfCP2qKSnffvko98fF-29" target="RnlfCP2qKSnffvko98fF-28">
          <mxGeometry relative="1" as="geometry">
            <Array as="points">
              <mxPoint x="2287" y="965" />
              <mxPoint x="2543" y="965" />
            </Array>
          </mxGeometry>
        </mxCell>
        <mxCell id="RnlfCP2qKSnffvko98fF-29" value="Location" style="swimlane;fontStyle=0;childLayout=stackLayout;horizontal=1;startSize=26;fillColor=none;horizontalStack=0;resizeParent=1;resizeParentMax=0;resizeLast=0;collapsible=1;marginBottom=0;" vertex="1" parent="1">
          <mxGeometry x="2215" y="990" width="140" height="52" as="geometry" />
        </mxCell>
        <mxCell id="RnlfCP2qKSnffvko98fF-31" value="Ethnic" style="swimlane;fontStyle=0;childLayout=stackLayout;horizontal=1;startSize=26;fillColor=none;horizontalStack=0;resizeParent=1;resizeParentMax=0;resizeLast=0;collapsible=1;marginBottom=0;" vertex="1" parent="1">
          <mxGeometry x="2764" y="946" width="140" height="52" as="geometry" />
        </mxCell>
        <mxCell id="RnlfCP2qKSnffvko98fF-32" value="nation" style="text;strokeColor=none;fillColor=none;align=left;verticalAlign=top;spacingLeft=4;spacingRight=4;overflow=hidden;rotatable=0;points=[[0,0.5],[1,0.5]];portConstraint=eastwest;" vertex="1" parent="RnlfCP2qKSnffvko98fF-31">
          <mxGeometry y="26" width="140" height="26" as="geometry" />
        </mxCell>
        <mxCell id="RnlfCP2qKSnffvko98fF-34" style="edgeStyle=orthogonalEdgeStyle;rounded=0;orthogonalLoop=1;jettySize=auto;html=1;strokeWidth=2;strokeColor=#333333;" edge="1" parent="1" source="RnlfCP2qKSnffvko98fF-33" target="RnlfCP2qKSnffvko98fF-32">
          <mxGeometry relative="1" as="geometry" />
        </mxCell>
        <mxCell id="RnlfCP2qKSnffvko98fF-37" style="edgeStyle=orthogonalEdgeStyle;rounded=0;orthogonalLoop=1;jettySize=auto;html=1;entryX=0;entryY=0.75;entryDx=0;entryDy=0;strokeWidth=2;strokeColor=#333333;" edge="1" parent="1" source="RnlfCP2qKSnffvko98fF-33" target="RnlfCP2qKSnffvko98fF-35">
          <mxGeometry relative="1" as="geometry" />
        </mxCell>
        <mxCell id="RnlfCP2qKSnffvko98fF-33" value="Nation" style="swimlane;fontStyle=0;childLayout=stackLayout;horizontal=1;startSize=26;fillColor=none;horizontalStack=0;resizeParent=1;resizeParentMax=0;resizeLast=0;collapsible=1;marginBottom=0;" vertex="1" parent="1">
          <mxGeometry x="2542" y="1038" width="140" height="52" as="geometry" />
        </mxCell>
        <mxCell id="RnlfCP2qKSnffvko98fF-35" value="monetaryUnit" style="swimlane;fontStyle=0;childLayout=stackLayout;horizontal=1;startSize=26;fillColor=none;horizontalStack=0;resizeParent=1;resizeParentMax=0;resizeLast=0;collapsible=1;marginBottom=0;" vertex="1" parent="1">
          <mxGeometry x="2766" y="1077" width="140" height="52" as="geometry" />
        </mxCell>
        <mxCell id="RnlfCP2qKSnffvko98fF-36" value="nation" style="text;strokeColor=none;fillColor=none;align=left;verticalAlign=top;spacingLeft=4;spacingRight=4;overflow=hidden;rotatable=0;points=[[0,0.5],[1,0.5]];portConstraint=eastwest;" vertex="1" parent="RnlfCP2qKSnffvko98fF-35">
          <mxGeometry y="26" width="140" height="26" as="geometry" />
        </mxCell>
        <mxCell id="RnlfCP2qKSnffvko98fF-38" value="Position" style="swimlane;fontStyle=0;childLayout=stackLayout;horizontal=1;startSize=26;fillColor=none;horizontalStack=0;resizeParent=1;resizeParentMax=0;resizeLast=0;collapsible=1;marginBottom=0;" vertex="1" parent="1">
          <mxGeometry x="1956" y="664" width="140" height="52" as="geometry" />
        </mxCell>
        <mxCell id="RnlfCP2qKSnffvko98fF-39" value="tag" style="text;strokeColor=none;fillColor=none;align=left;verticalAlign=top;spacingLeft=4;spacingRight=4;overflow=hidden;rotatable=0;points=[[0,0.5],[1,0.5]];portConstraint=eastwest;" vertex="1" parent="RnlfCP2qKSnffvko98fF-38">
          <mxGeometry y="26" width="140" height="26" as="geometry" />
        </mxCell>
        <mxCell id="RnlfCP2qKSnffvko98fF-45" style="edgeStyle=orthogonalEdgeStyle;rounded=0;orthogonalLoop=1;jettySize=auto;html=1;strokeColor=#333333;strokeWidth=2;" edge="1" parent="1" source="RnlfCP2qKSnffvko98fF-43" target="RnlfCP2qKSnffvko98fF-41">
          <mxGeometry relative="1" as="geometry" />
        </mxCell>
        <mxCell id="RnlfCP2qKSnffvko98fF-43" value="tagCategory" style="swimlane;fontStyle=0;childLayout=stackLayout;horizontal=1;startSize=26;fillColor=none;horizontalStack=0;resizeParent=1;resizeParentMax=0;resizeLast=0;collapsible=1;marginBottom=0;" vertex="1" parent="1">
          <mxGeometry x="1961" y="778" width="140" height="52" as="geometry" />
        </mxCell>
        <mxCell id="RnlfCP2qKSnffvko98fF-49" value="pattern.component" style="swimlane;fontStyle=0;childLayout=stackLayout;horizontal=1;startSize=26;fillColor=none;horizontalStack=0;resizeParent=1;resizeParentMax=0;resizeLast=0;collapsible=1;marginBottom=0;" vertex="1" parent="1">
          <mxGeometry x="1978" y="887" width="140" height="52" as="geometry" />
        </mxCell>
        <mxCell id="RnlfCP2qKSnffvko98fF-50" value="tag" style="text;strokeColor=none;fillColor=none;align=left;verticalAlign=top;spacingLeft=4;spacingRight=4;overflow=hidden;rotatable=0;points=[[0,0.5],[1,0.5]];portConstraint=eastwest;" vertex="1" parent="RnlfCP2qKSnffvko98fF-49">
          <mxGeometry y="26" width="140" height="26" as="geometry" />
        </mxCell>
        <mxCell id="RnlfCP2qKSnffvko98fF-52" value="smsBrandname" style="swimlane;fontStyle=0;childLayout=stackLayout;horizontal=1;startSize=26;fillColor=none;horizontalStack=0;resizeParent=1;resizeParentMax=0;resizeLast=0;collapsible=1;marginBottom=0;" vertex="1" parent="1">
          <mxGeometry x="2710" y="794" width="140" height="52" as="geometry" />
        </mxCell>
        <mxCell id="RnlfCP2qKSnffvko98fF-53" value="agency" style="text;strokeColor=none;fillColor=none;align=left;verticalAlign=top;spacingLeft=4;spacingRight=4;overflow=hidden;rotatable=0;points=[[0,0.5],[1,0.5]];portConstraint=eastwest;" vertex="1" parent="RnlfCP2qKSnffvko98fF-52">
          <mxGeometry y="26" width="140" height="26" as="geometry" />
        </mxCell>
      </root>
    </mxGraphModel>
  </diagram>
</mxfile>
